<svg width="117" height="30" viewBox="0 0 117 30" fill="none" xmlns="http://www.w3.org/2000/svg">
<path fill-rule="evenodd" clip-rule="evenodd" d="M18.6106 1.37751C17.9309 0.697801 17.0949 0.269635 16.2183 0.0930085C14.7264 -0.207386 13.1169 0.220825 11.96 1.37764L11.7583 1.57937L11.7579 1.57898L11.7577 1.57924L11.5559 1.37751L11.5549 1.3765C10.8753 0.697273 10.0395 0.269415 9.16322 0.0929262C7.67138 -0.207307 6.06205 0.22093 4.90535 1.37764C3.06866 3.21432 3.06866 6.19218 4.90535 8.02887L5.28391 8.40743L5.28359 8.40764L11.7577 14.8817L18.6106 8.02874C20.4473 6.19205 20.4473 3.21419 18.6106 1.37751ZM23.5157 18.224C23.5157 14.9729 22.1961 12.03 20.0634 9.90155L11.7577 18.2073L3.45205 9.90172C1.31945 12.0301 0 14.973 0 18.224C0 21.471 1.31612 24.4105 3.44399 26.5383L11.7577 18.2246L20.0715 26.5384C22.1995 24.4107 23.5157 21.471 23.5157 18.224ZM18.2416 28.0341L11.7577 21.5502L5.27388 28.034C7.13259 29.265 9.36149 29.9819 11.7578 29.9819C14.1541 29.9819 16.3829 29.265 18.2416 28.0341Z" fill="url(#paint0_linear)"/>
<path d="M40.6041 12.893H43.1673C43.117 10.4087 40.999 8.64964 37.8685 8.64964C34.7812 8.64964 32.4621 10.3872 32.4693 12.9863C32.4693 15.0972 33.9699 16.3106 36.3895 16.9352L38.0624 17.366C39.6492 17.7681 40.6974 18.2635 40.7046 19.4051C40.6974 20.6616 39.5056 21.5016 37.768 21.5016C36.1023 21.5016 34.8099 20.7549 34.7022 19.2113H32.0815C32.1892 22.1335 34.3647 23.7777 37.7896 23.7777C41.3149 23.7777 43.3612 22.0186 43.3683 19.4267C43.3612 16.8778 41.2575 15.7147 39.046 15.1905L37.6675 14.8459C36.4613 14.5587 35.1545 14.0489 35.1689 12.8212C35.1761 11.7155 36.1669 10.9041 37.8326 10.9041C39.4194 10.9041 40.4677 11.6437 40.6041 12.893Z" fill="#333333"/>
<path d="M48.2273 17.0932C48.2273 15.4993 49.1894 14.5802 50.5608 14.5802C51.9034 14.5802 52.7076 15.4634 52.7076 16.9352V23.5551H55.3067V16.5332C55.3139 13.891 53.8061 12.3832 51.5301 12.3832C49.8787 12.3832 48.7443 13.173 48.2417 14.4007H48.1125V12.5268H45.6282V23.5551H48.2273V17.0932Z" fill="#333333"/>
<path d="M57.9489 23.5551H60.548V12.5268H57.9489V23.5551ZM59.2557 10.9616C60.0813 10.9616 60.7563 10.3297 60.7563 9.55431C60.7563 8.7717 60.0813 8.13987 59.2557 8.13987C58.4228 8.13987 57.7479 8.7717 57.7479 9.55431C57.7479 10.3297 58.4228 10.9616 59.2557 10.9616Z" fill="#333333"/>
<path d="M63.2208 27.6907H65.8199V21.8176H65.9276C66.3368 22.6217 67.1912 23.749 69.0867 23.749C71.6858 23.749 73.6316 21.6883 73.6316 18.0553C73.6316 14.3792 71.6284 12.3832 69.0795 12.3832C67.1338 12.3832 66.3225 13.5535 65.9276 14.3505H65.7768V12.5268H63.2208V27.6907ZM65.7696 18.0409C65.7696 15.9013 66.6886 14.5156 68.3616 14.5156C70.0919 14.5156 70.9822 15.9875 70.9822 18.0409C70.9822 20.1087 70.0775 21.6165 68.3616 21.6165C66.703 21.6165 65.7696 20.1805 65.7696 18.0409Z" fill="#333333"/>
<path d="M81.4433 12.5268H79.1529V11.658C79.1529 10.7964 79.5119 10.3154 80.4812 10.3154C80.8905 10.3154 81.2351 10.4087 81.4505 10.4733L81.9746 8.46296C81.6372 8.34809 80.8977 8.16141 80.0002 8.16141C78.0831 8.16141 76.5538 9.25993 76.5538 11.4857V12.5268H74.924V14.5372H76.5538V23.5551H79.1529V14.5372H81.4433V12.5268Z" fill="#333333"/>
<path d="M87.9465 23.7705C90.5169 23.7705 92.2832 22.514 92.7427 20.597L90.3159 20.3241C89.9641 21.2575 89.1025 21.7458 87.9824 21.7458C86.3023 21.7458 85.1894 20.6401 85.1679 18.7517H92.8504V17.9548C92.8504 14.0848 90.5241 12.3832 87.8101 12.3832C84.6509 12.3832 82.5903 14.7023 82.5903 18.1056C82.5903 21.5663 84.6222 23.7705 87.9465 23.7705ZM85.1751 16.9999C85.2541 15.5926 86.2951 14.4079 87.846 14.4079C89.3394 14.4079 90.3446 15.4993 90.359 16.9999H85.1751Z" fill="#333333"/>
<path d="M99.9315 23.7705C102.502 23.7705 104.268 22.514 104.728 20.597L102.301 20.3241C101.949 21.2575 101.088 21.7458 99.9675 21.7458C98.2874 21.7458 97.1745 20.6401 97.1529 18.7517H104.835V17.9548C104.835 14.0848 102.509 12.3832 99.7951 12.3832C96.636 12.3832 94.5754 14.7023 94.5754 18.1056C94.5754 21.5663 96.6073 23.7705 99.9315 23.7705ZM97.1601 16.9999C97.2391 15.5926 98.2802 14.4079 99.831 14.4079C101.324 14.4079 102.33 15.4993 102.344 16.9999H97.1601Z" fill="#333333"/>
<path d="M111.127 23.749C113.022 23.749 113.877 22.6217 114.286 21.8176H114.444V23.5551H117V8.85068H114.394V14.3505H114.286C113.891 13.5535 113.08 12.3832 111.134 12.3832C108.585 12.3832 106.582 14.3792 106.582 18.0553C106.582 21.6883 108.528 23.749 111.127 23.749ZM111.852 21.6165C110.136 21.6165 109.231 20.1087 109.231 18.0409C109.231 15.9875 110.122 14.5156 111.852 14.5156C113.525 14.5156 114.444 15.9013 114.444 18.0409C114.444 20.1805 113.511 21.6165 111.852 21.6165Z" fill="#333333"/>
<defs>
<linearGradient id="paint0_linear" x1="11.7578" y1="0.00012207" x2="11.7578" y2="29.9819" gradientUnits="userSpaceOnUse">
<stop stop-color="#FE9A8B"/>
<stop offset="1" stop-color="#F78CA0"/>
</linearGradient>
</defs>
</svg>
